. 
  
http://www.torrenting.com/        :     Greatest Movie Tracker on The Net!!!
 
http://www.Torrenting.com          :     Once & For all ;)


               www . Torrenting . Com 

(((((((((((((= Enjoy No RAR releases =))))))))))))))))))))


...................................NFO:....................................

.[pre]  
    *********** ****    ****      ***      ******** *********** ****    *** **********
           *+*     +*+*+* *+*+*+   *+* *+*   *+*    *+*    *+*     *+*+*   *+* *+*        
           +*+     +*+ +*+*+ +*+  +*+   +*+  +*+           +*+     *+*+*+  +*+ +*+        
           +$+     +$+  +*+  +$+ +$++*++$++* *$*           +$+     +$+ +*+ +$+ +$++*++$  
           +$+     +$+       +$+ +$+     +$+ +$+   +$+$    +$+     +$+  +$+$+$ +$+        
           $+$     $+$       $+$ $+$     $+$ $+$    $+$    $+$     $+$   $+$+$ $+$        
       $$$$$$$$$$$ $$$       $$$ $$$     $$$  $$$$$$$$ $$$$$$$$$$$ $$$    $$$$ $$$$$$$$$$     
                                                



                           Another Fine Release Brought to you from - IMAGiNE                   
                                                 

********************************************************************************************************************                                
                          Horrible Bosses 2011 CAM READNFO XViD - IMAGiNE
********************************************************************************************************************

Ripper ...........: IMAGiNE                                        IMDB Rating.......:7.7/10                             
Video Codec.......: XVID                                         Release Date......:10/07/11
Audio Codec.......:MP3                                           Theatre Date......:08/07/11
Audio Bitrate.....:128                                              Runtime.......:1h33mn
Subtitles.........:NIL                                                 Language..........:ENGLISH
Resolution...... 608 x 256                                      IMDb URL..........:http://www.imdb.com/title/tt1499658/


[color=yellow]DETAILS:[/color]

Video
ID                               : 0
Format                           : MPEG-4 Visual
Format profile                   : Advanced Simple@L5
Format settings, BVOP            : 2
Format settings, QPel            : No
Format settings, GMC             : No warppoints
Format settings, Matrix          : Default (MPEG)
Muxing mode                      : Packed bitstream
Codec ID                         : XVID
Codec ID/Hint                    : XviD
Duration                         : 1h 33mn
Bit rate                         : 1 380 Kbps
Width                            : 608 pixels
Height                           : 256 pixels
Display aspect ratio             : 2.35:1
Frame rate                       : 23.976 fps
Color space                      : YUV
Chroma subsampling               : 4:2:0
Bit depth                        : 8 bits
Scan type                        : Progressive
Compression mode                 : Lossy
Bits/(Pixel*Frame)               : 0.370
Stream size                      : 920 MiB (91%)
Writing library                  : XviD 61

Audio
ID                               : 1
Format                           : MPEG Audio
Format version                   : Version 1
Format profile                   : Layer 3
Codec ID                         : 55
Codec ID/Hint                    : MP3
Duration                         : 1h 33mn
Bit rate mode                    : Constant
Bit rate                         : 128 Kbps
Channel(s)                       : 2 channels
Sampling rate                    : 44.1 KHz
Compression mode                 : Lossy
Stream size                      : 85.3 MiB (8%)
Alignment                        : Split accross interleaves
Interleave, duration             : 42 ms (1.00 video frame)
Interleave, preload duration     : 500 ms


[color=yellow]SOURCES:[/color]

VIDEO:Horrible.Bosses.CAM.F.U.-ItsFree
AUDIO:Horrible.Bosses.CAM.F.U.-ItsFree

[color=yellow]NOTES:[/color]

IMAGiNE bringing you another release..........Horrible.Bosses

Ok many thanks to FU for putting his/hers ass on the line for us all :)
Source was ok but alot of movement and i mean alot,video also as alot of glares on it and
colours off and also seems to be compressed so you lose alot of the Q.
Audio is ok for a cam audio ...it is what it is and for some,thats fine......others,well wait for
something better.
Work done ...a fair bit being honest.Firstly we cut video up into 20+ pieces and rotated and levelled the
video up,then for each part we changed the brightness,contrast,sharpness,chroma,rgb colours,resized etc.....and then
appended them all together at the end.
Audio is untouched and just remuxed to our encode.
Got too warn you there is still movement and you will get some borders here and there as it would take around 60-70 cuts
to get it 100% right and sorry ....not going too happen on a low Q cam :P

Anyways enjoy folks ;-)



[color=yellow]SCREENS:[/color]


[color=yellow]GREETS:[/color]

FLAWL3SS,KINOPARK,Rx,ELEKTRI4KA,ADDiCTED,Autotron,CiNEDUB,CRYS,T0XiC,
And to all the other p2p grps past and present 

[COLOR=RED]Looking for these,syncers,cammers,audio,silver supplier.....Have anything to offer????......
Contact us imaginegroup@hushmail.com[/COLOR][/pre]